<svg width="43" height="38" viewBox="0 0 43 38" fill="none" xmlns="http://www.w3.org/2000/svg">
<path fill-rule="evenodd" clip-rule="evenodd" d="M15.5391 0C20.2853 0 24.1328 3.84755 24.1328 8.59375C24.1328 13.3399 20.2853 17.1875 15.5391 17.1875C10.7929 17.1875 6.94531 13.3399 6.94531 8.59375C6.94531 3.84755 10.7929 0 15.5391 0ZM20.6953 8.59375C20.6953 5.74603 18.3868 3.4375 15.5391 3.4375C12.6913 3.4375 10.3828 5.74603 10.3828 8.59375C10.3828 11.4415 12.6913 13.75 15.5391 13.75C18.3868 13.75 20.6953 11.4415 20.6953 8.59375Z" fill="#2D264B"/>
<path fill-rule="evenodd" clip-rule="evenodd" d="M22.4141 20.625C27.1603 20.625 31.0078 24.4726 31.0078 29.2188C31.0078 33.9649 27.1603 37.8125 22.4141 37.8125H8.66406C3.91787 37.8125 0.0703125 33.9649 0.0703125 29.2188C0.0703125 24.4726 3.91787 20.625 8.66406 20.625H22.4141ZM27.5703 29.2188C27.5703 26.371 25.2618 24.0625 22.4141 24.0625H8.66406C5.81634 24.0625 3.50781 26.371 3.50781 29.2188C3.50781 32.0665 5.81634 34.375 8.66406 34.375H22.4141C25.2618 34.375 27.5703 32.0665 27.5703 29.2188Z" fill="#2D264B"/>
<path d="M25.2737 14.6407C25.6352 14.06 26.3134 13.75 26.9974 13.75C29.8451 13.75 32.1536 11.4415 32.1536 8.59375C32.1536 5.74603 29.8451 3.4375 26.9974 3.4375C26.3134 3.4375 25.6352 3.1275 25.2737 2.54684C25.2578 2.52115 25.2417 2.49554 25.2255 2.47C24.6237 1.52008 24.9286 0.175085 26.0464 0.0520282C26.3586 0.0176481 26.676 0 26.9974 0C31.7436 0 35.5911 3.84755 35.5911 8.59375C35.5911 13.3399 31.7436 17.1875 26.9974 17.1875C26.676 17.1875 26.3586 17.1699 26.0463 17.1355C24.9286 17.0124 24.6237 15.6674 25.2255 14.7175C25.2417 14.692 25.2578 14.6663 25.2737 14.6407Z" fill="#2D264B"/>
<path d="M32.2492 32.8095C32.5094 32.3755 32.9686 32.0833 33.4746 32.0833H33.8724C36.7201 32.0833 39.0286 29.7748 39.0286 26.9271C39.0286 24.0794 36.7201 21.7708 33.8724 21.7708H33.4746C32.9686 21.7708 32.5094 21.4787 32.2492 21.0447C31.6142 19.9852 32.3033 18.3333 33.5385 18.3333H33.8724C38.6186 18.3333 42.4661 22.1809 42.4661 26.9271C42.4661 31.6733 38.6186 35.5208 33.8724 35.5208H33.5385C32.3033 35.5208 31.6142 33.8689 32.2492 32.8095Z" fill="#2D264B"/>
</svg>
