<svg width="21" height="19" viewBox="0 0 21 19" fill="none" xmlns="http://www.w3.org/2000/svg">
<path d="M7.50619 10.8581C7.50619 10.5544 7.77405 10.3083 8.10449 10.3083H12.8909C13.2213 10.3083 13.4892 10.5544 13.4892 10.8581C13.4892 11.1618 13.2213 11.4079 12.8909 11.4079H8.10449C7.77405 11.4079 7.50619 11.1618 7.50619 10.8581Z" fill="#2D264B"/>
<path fill-rule="evenodd" clip-rule="evenodd" d="M8.10449 1.51099C8.43492 1.51099 8.70279 1.75715 8.70279 2.06082V2.98498C9.23666 2.9772 9.82985 2.9772 10.4889 2.9772H10.5065C11.1655 2.9772 11.7587 2.9772 12.2926 2.98498V2.06082C12.2926 1.75715 12.5605 1.51099 12.8909 1.51099C13.2213 1.51099 13.4892 1.75715 13.4892 2.06082V3.02381C14.6953 3.0933 15.6219 3.2729 16.3848 3.78227C16.7742 4.04227 17.1166 4.35698 17.3995 4.71484C18.0392 5.52394 18.2009 6.53342 18.2522 7.90685C18.2756 8.53528 18.2756 9.26647 18.2756 10.1169V10.1331C18.2756 10.9835 18.2756 11.7147 18.2522 12.3432C18.2009 13.7166 18.0392 14.7261 17.3995 15.5352C17.1166 15.893 16.7742 16.2077 16.3848 16.4677C15.5043 17.0556 14.4059 17.2042 12.9114 17.2513C12.2275 17.2728 11.4318 17.2728 10.5063 17.2728H10.4616C8.99651 17.2728 7.8481 17.2728 6.93698 17.1821C6.0072 17.0895 5.25383 16.8972 4.6106 16.4677C4.22119 16.2077 3.87874 15.893 3.59582 15.5352C3.12849 14.944 2.91923 14.2517 2.81849 13.3972C2.71978 12.5599 2.71978 11.5046 2.71979 10.1582L2.71979 10.1169C2.71979 9.26645 2.71979 8.53527 2.74322 7.90685C2.79442 6.53342 2.95615 5.52394 3.59582 4.71484C3.87874 4.35698 4.22119 4.04227 4.6106 3.78227C5.37349 3.2729 6.30008 3.0933 7.50619 3.02381V2.06082C7.50619 1.75715 7.77405 1.51099 8.10449 1.51099ZM7.50619 4.12617C6.41963 4.19484 5.79248 4.3524 5.31395 4.67191C5.02612 4.86409 4.77301 5.0967 4.56389 5.3612C4.21622 5.80097 4.04476 6.37732 3.97004 7.37585H17.0253C16.9506 6.37732 16.7792 5.80097 16.4315 5.3612C16.2224 5.0967 15.9692 4.86409 15.6814 4.67191C15.2029 4.3524 14.5757 4.19484 13.4892 4.12617V4.26014C13.4892 4.5638 13.2213 4.80997 12.8909 4.80997C12.5605 4.80997 12.2926 4.5638 12.2926 4.26014V4.08477C11.7664 4.0769 11.1738 4.07686 10.4977 4.07686C9.82155 4.07686 9.22896 4.0769 8.70279 4.08477V4.26014C8.70279 4.5638 8.43492 4.80997 8.10449 4.80997C7.77405 4.80997 7.50619 4.5638 7.50619 4.26014V4.12617ZM17.0704 8.47551H3.92499C3.91643 8.95906 3.91639 9.50365 3.91639 10.125C3.91639 11.5117 3.91721 12.5076 4.00813 13.2788C4.09783 14.0397 4.26946 14.5164 4.56389 14.8888C4.77301 15.1533 5.02612 15.3859 5.31395 15.5781C5.7192 15.8487 6.2379 16.0064 7.06587 16.0888C7.90505 16.1724 8.98871 16.1731 10.4977 16.1731C11.1744 16.1731 11.7675 16.1731 12.294 16.1652C12.2975 15.8172 12.3093 15.5611 12.3491 15.3304C12.6599 13.5267 14.1993 12.1121 16.162 11.8264C16.413 11.7899 16.6917 11.779 17.0704 11.7758C17.0789 11.292 17.079 10.7469 17.079 10.125C17.079 9.50365 17.0789 8.95906 17.0704 8.47551ZM17.0252 12.8762C16.7021 12.8796 16.5127 12.8887 16.3492 12.9125C14.8985 13.1237 13.7607 14.1693 13.5309 15.5025C13.505 15.6528 13.4951 15.8268 13.4914 16.1237C14.5766 16.055 15.2032 15.8974 15.6814 15.5781C15.9692 15.3859 16.2224 15.1533 16.4315 14.8888C16.7789 14.4493 16.9504 13.8735 17.0252 12.8762Z" fill="#2D264B"/>
</svg>
