<svg width="15" height="18" viewBox="0 0 15 18" fill="none" xmlns="http://www.w3.org/2000/svg">
<path fill-rule="evenodd" clip-rule="evenodd" d="M7.21852 5.17648C5.56636 5.17648 4.22702 6.40732 4.22702 7.92563C4.22702 9.44395 5.56636 10.6748 7.21852 10.6748C8.87068 10.6748 10.21 9.44395 10.21 7.92563C10.21 6.40732 8.87068 5.17648 7.21852 5.17648ZM5.42362 7.92563C5.42362 7.01464 6.22723 6.27614 7.21852 6.27614C8.20982 6.27614 9.01342 7.01464 9.01342 7.92563C9.01342 8.83662 8.20982 9.57513 7.21852 9.57513C6.22723 9.57513 5.42362 8.83662 5.42362 7.92563Z" fill="#2D264B"/>
<path fill-rule="evenodd" clip-rule="evenodd" d="M7.21852 0.777832C3.32292 0.777832 0.238358 3.88824 0.238358 7.63876C0.238358 8.84159 0.888594 10.258 1.7067 11.5872C2.53804 12.9379 3.59911 14.2862 4.52939 15.3764L4.56042 15.4128C5.01449 15.945 5.40131 16.3983 5.77641 16.7115C6.18565 17.0531 6.63693 17.2768 7.21852 17.2768C7.80012 17.2768 8.25139 17.0531 8.66063 16.7115C9.03573 16.3983 9.42255 15.945 9.87663 15.4128L9.90765 15.3764C10.8379 14.2862 11.899 12.9379 12.7303 11.5872C13.5484 10.258 14.1987 8.84159 14.1987 7.63876C14.1987 3.88824 11.1141 0.777832 7.21852 0.777832ZM1.43496 7.63876C1.43496 4.41824 4.06491 1.87749 7.21852 1.87749C10.3721 1.87749 13.0021 4.41824 13.0021 7.63876C13.0021 8.53792 12.4918 9.74108 11.6888 11.0458C10.899 12.3289 9.87834 13.6287 8.96605 14.6978C8.47228 15.2765 8.14718 15.6545 7.85606 15.8975C7.59054 16.1191 7.41331 16.1771 7.21852 16.1771C7.02373 16.1771 6.8465 16.1191 6.58099 15.8975C6.28986 15.6545 5.96476 15.2765 5.47099 14.6978C4.55871 13.6287 3.53801 12.3289 2.74823 11.0458C1.9452 9.74108 1.43496 8.53792 1.43496 7.63876Z" fill="#2D264B"/>
</svg>
