<svg width="37" height="48" viewBox="0 0 37 48" fill="none" xmlns="http://www.w3.org/2000/svg">
<path fill-rule="evenodd" clip-rule="evenodd" d="M18.4997 0.864563C12.4878 0.864563 7.61426 5.73813 7.61426 11.75C7.61426 17.7618 12.4878 22.6354 18.4997 22.6354C24.5115 22.6354 29.3851 17.7618 29.3851 11.75C29.3851 5.73813 24.5115 0.864563 18.4997 0.864563ZM11.0518 11.75C11.0518 7.63661 14.3863 4.30206 18.4997 4.30206C22.613 4.30206 25.9476 7.63661 25.9476 11.75C25.9476 15.8634 22.613 19.1979 18.4997 19.1979C14.3863 19.1979 11.0518 15.8634 11.0518 11.75Z" fill="#2D264B"/>
<path fill-rule="evenodd" clip-rule="evenodd" d="M11.6247 26.0729C5.61283 26.0729 0.739258 30.9465 0.739258 36.9583C0.739258 42.9702 5.61282 47.8437 11.6247 47.8437H25.3747C31.3865 47.8437 36.2601 42.9702 36.2601 36.9583C36.2601 30.9465 31.3865 26.0729 25.3747 26.0729H11.6247ZM4.17676 36.9583C4.17676 32.8449 7.5113 29.5104 11.6247 29.5104H25.3747C29.488 29.5104 32.8226 32.8449 32.8226 36.9583C32.8226 41.0717 29.488 44.4062 25.3747 44.4062H11.6247C7.5113 44.4062 4.17676 41.0717 4.17676 36.9583Z" fill="#2D264B"/>
</svg>
