<svg width="12" height="12" viewBox="0 0 12 12" fill="none" xmlns="http://www.w3.org/2000/svg">
<path fill-rule="evenodd" clip-rule="evenodd" d="M8.2176 0.286301C7.65764 0.276083 7.03521 0.456546 6.01332 0.752824L5.88016 0.791417C5.48012 0.907307 5.23397 0.978613 5.00618 1.0807C4.53527 1.29173 4.12366 1.59972 3.80334 1.98072C3.64838 2.16502 3.52251 2.37207 3.31793 2.70858L1.8688 5.09186C1.40735 5.85051 1.12576 6.31347 1.01778 6.76866C0.779205 7.77443 1.09375 8.82372 1.85914 9.57531C2.20554 9.91547 2.70538 10.1806 3.52448 10.615L3.67958 10.6973C4.49855 11.132 4.99831 11.3973 5.49206 11.5029C6.58304 11.7362 7.72912 11.4619 8.55764 10.7692C8.93261 10.4556 9.22809 10 9.71229 9.25347L11.2336 6.9085C11.4485 6.57743 11.5807 6.37372 11.6769 6.15824C11.8757 5.71281 11.9602 5.23123 11.9236 4.75093C11.9059 4.51859 11.85 4.28703 11.7592 3.9107L11.729 3.78545C11.4973 2.82403 11.3561 2.23841 11.0665 1.79786C10.4619 0.878218 9.38653 0.307632 8.2176 0.286301ZM6.18251 1.56034C7.33365 1.22678 7.80536 1.09583 8.19996 1.10303C9.06394 1.1188 9.85881 1.54054 10.3057 2.22027C10.5097 2.53072 10.6222 2.97162 10.8834 4.05455C10.9846 4.47402 11.0243 4.6435 11.0369 4.80797C11.0639 5.16297 11.0015 5.51892 10.8545 5.84815C10.7864 6.00068 10.6908 6.15012 10.4513 6.51916L8.99464 8.76444C8.44993 9.60403 8.22385 9.94383 7.95943 10.1649C7.34704 10.677 6.49994 10.8797 5.69357 10.7072C5.34537 10.6328 4.96765 10.4375 4.04649 9.94873C3.12533 9.45998 2.75244 9.25701 2.50816 9.01713C1.94244 8.46161 1.70995 7.68605 1.88629 6.94265C1.96243 6.62165 2.16961 6.27183 2.68846 5.41851L4.07598 3.13654C4.30404 2.76146 4.39705 2.61063 4.50674 2.48017C4.7435 2.19856 5.04773 1.97092 5.3958 1.81494C5.55705 1.74268 5.73662 1.68955 6.18251 1.56034Z" fill="#2D264B"/>
<path fill-rule="evenodd" clip-rule="evenodd" d="M6.27695 3.5296C5.86784 4.18079 6.11063 5.01346 6.81922 5.38942C7.52781 5.76539 8.43388 5.54227 8.84299 4.89108C9.2521 4.23989 9.00932 3.40722 8.30072 3.03126C7.59213 2.65529 6.68606 2.87841 6.27695 3.5296ZM7.04676 3.93804C6.88312 4.19852 6.98023 4.53159 7.26367 4.68197C7.54711 4.83236 7.90954 4.74311 8.07318 4.48264C8.23682 4.22216 8.13971 3.88909 7.85627 3.73871C7.57283 3.58832 7.21041 3.67757 7.04676 3.93804Z" fill="#2D264B"/>
</svg>
