<svg width="20" height="19" viewBox="0 0 20 19" fill="none" xmlns="http://www.w3.org/2000/svg">
<g clip-path="url(#clip0_1_87)">
<path d="M5.58111 1.94013C5.83913 1.75044 5.88096 1.40443 5.67455 1.16731C5.46813 0.930191 5.09162 0.891746 4.8336 1.08144L2.83926 2.54766C2.58124 2.73736 2.53941 3.08336 2.74583 3.32048C2.95224 3.5576 3.32875 3.59605 3.58677 3.40635L5.58111 1.94013Z" fill="#2D264B"/>
<path d="M15.9516 1.08144C15.6936 0.891746 15.3171 0.930191 15.1107 1.16731C14.9043 1.40443 14.9461 1.75044 15.2041 1.94013L17.1985 3.40635C17.4565 3.59605 17.833 3.5576 18.0394 3.32048C18.2458 3.08336 18.204 2.73736 17.946 2.54766L15.9516 1.08144Z" fill="#2D264B"/>
<path d="M10.9909 6.45927C10.9909 6.1556 10.723 5.90944 10.3926 5.90944C10.0622 5.90944 9.79432 6.1556 9.79432 6.45927L9.79432 9.02515C9.79432 9.93613 10.5979 10.6746 11.5892 10.6746H12.7858C13.1162 10.6746 13.3841 10.4285 13.3841 10.1248C13.3841 9.82114 13.1162 9.57498 12.7858 9.57498H11.5892C11.2588 9.57498 10.9909 9.32881 10.9909 9.02514L10.9909 6.45927Z" fill="#2D264B"/>
<path fill-rule="evenodd" clip-rule="evenodd" d="M10.3926 1.51079C5.65643 1.51079 1.81699 5.03919 1.81699 9.3917C1.81699 13.7442 5.65643 17.2726 10.3926 17.2726C15.1288 17.2726 18.9682 13.7442 18.9682 9.3917C18.9682 5.03919 15.1288 1.51079 10.3926 1.51079ZM3.01359 9.3917C3.01359 5.64652 6.31729 2.61045 10.3926 2.61045C14.4679 2.61045 17.7716 5.64652 17.7716 9.3917C17.7716 13.1369 14.4679 16.1729 10.3926 16.1729C6.31729 16.1729 3.01359 13.1369 3.01359 9.3917Z" fill="#2D264B"/>
</g>
<defs>
<clipPath id="clip0_1_87">
<rect width="19.1456" height="17.5946" fill="white" transform="translate(0.819824 0.594482)"/>
</clipPath>
</defs>
</svg>
