<svg width="57" height="57" viewBox="0 0 57 57" fill="none" xmlns="http://www.w3.org/2000/svg">
<path d="M55 28.4938C55.0087 33.7549 53.4439 38.8983 50.5068 43.2632C48.0845 46.8758 44.8095 49.8361 40.9712 51.8821C37.1328 53.9281 32.8495 54.9968 28.5 54.9938C24.1504 54.9968 19.8671 53.9281 16.0288 51.8821C12.1905 49.8361 8.91545 46.8758 6.49322 43.2632C4.18693 39.8253 2.71816 35.8949 2.20466 31.787C1.69116 27.6792 2.14721 23.5082 3.53626 19.6083C4.9253 15.7085 7.20871 12.1884 10.2034 9.3301C13.1981 6.47182 16.8208 4.35491 20.7811 3.14908C24.7415 1.94324 28.9292 1.68203 33.0086 2.38637C37.0881 3.09071 40.9458 4.74101 44.2725 7.20499C47.5992 9.66896 50.3023 12.8781 52.1653 16.575C54.0282 20.272 54.999 24.354 55 28.4938Z" stroke="black" stroke-width="2.94444"/>
<path d="M32.9163 19.6602C32.9163 20.8315 32.451 21.9549 31.6227 22.7832C30.7944 23.6115 29.671 24.0768 28.4997 24.0768V27.0213C29.4664 27.0213 30.4236 26.8309 31.3167 26.461C32.2097 26.091 33.0212 25.5488 33.7048 24.8653C34.3883 24.1817 34.9305 23.3702 35.3005 22.4772C35.6704 21.5841 35.8608 20.6269 35.8608 19.6602H32.9163ZM28.4997 24.0768C27.3283 24.0768 26.2049 23.6115 25.3766 22.7832C24.5483 21.9549 24.083 20.8315 24.083 19.6602H21.1386C21.1386 20.6269 21.329 21.5841 21.6989 22.4772C22.0688 23.3702 22.611 24.1817 23.2946 24.8653C24.6751 26.2457 26.5474 27.0213 28.4997 27.0213V24.0768ZM24.083 19.6602C24.083 18.4888 24.5483 17.3654 25.3766 16.5371C26.2049 15.7088 27.3283 15.2435 28.4997 15.2435V12.2991C26.5474 12.2991 24.6751 13.0746 23.2946 14.4551C21.9141 15.8356 21.1386 17.7079 21.1386 19.6602H24.083ZM28.4997 15.2435C29.671 15.2435 30.7944 15.7088 31.6227 16.5371C32.451 17.3654 32.9163 18.4888 32.9163 19.6602H35.8608C35.8608 17.7079 35.0852 15.8356 33.7048 14.4551C32.3243 13.0746 30.452 12.2991 28.4997 12.2991V15.2435ZM8.37736 45.7362L6.96403 45.318L6.7373 46.0865L7.25847 46.696L8.37736 45.7362ZM48.622 45.7362L49.7409 46.696L50.2621 46.0865L50.0324 45.318L48.622 45.7362ZM19.6664 38.7991H37.333V35.8546H19.6664V38.7991ZM19.6664 35.8546C16.813 35.8551 14.036 36.7763 11.748 38.4813C9.46005 40.1862 7.78036 42.584 6.96403 45.318L9.78775 46.1572C10.4233 44.031 11.7279 42.1666 13.5076 40.841C15.2873 39.5153 17.4472 38.7992 19.6664 38.7991V35.8546ZM28.4997 53.5213C24.8876 53.5251 21.3178 52.7452 18.0364 51.2355C14.755 49.7257 11.8403 47.5219 9.4933 44.7763L7.25847 46.696C9.88212 49.7634 13.1398 52.2253 16.8069 53.912C20.474 55.5986 24.4633 56.4699 28.4997 56.4657V53.5213ZM37.333 38.7991C39.5525 38.7994 41.7127 39.516 43.4925 40.8422C45.2722 42.1684 46.5765 44.0334 47.2116 46.1602L50.0324 45.318C49.2161 42.584 47.5393 40.1862 45.2513 38.4813C42.9634 36.7763 40.1864 35.8551 37.333 35.8546V38.7991ZM47.5061 44.7763C45.1591 47.5219 42.2443 49.7257 38.963 51.2355C35.6816 52.7452 32.1117 53.5251 28.4997 53.5213V56.4657C32.5361 56.4699 36.5253 55.5986 40.1924 53.912C43.8595 52.2253 47.1172 49.7634 49.7409 46.696L47.5061 44.7763Z" fill="black"/>
</svg>
